<svg xmlns="http://www.w3.org/2000/svg" xmlns:xlink="http://www.w3.org/1999/xlink" width="1920" zoomAndPan="magnify" viewBox="0 0 1440 809.999993" height="1080" preserveAspectRatio="xMidYMid meet" version="1.0"><defs><filter x="0%" y="0%" width="100%" height="100%" id="fd0ec7e406"><feColorMatrix values="0 0 0 0 1 0 0 0 0 1 0 0 0 0 1 0 0 0 1 0" color-interpolation-filters="sRGB"/></filter><mask id="67dc7a6704"><g filter="url(#fd0ec7e406)"><rect x="-144" width="1728" fill="#000000" y="-80.999999" height="971.999992" fill-opacity="0.3"/></g></mask><clipPath id="d058c415d6"><path d="M 18 0.3125 L 723 0.3125 L 723 736.0625 L 18 736.0625 Z M 18 0.3125 " clip-rule="nonzero"/></clipPath><clipPath id="5c77faa83a"><path d="M 5.3125 12 L 736 12 L 736 691 L 5.3125 691 Z M 5.3125 12 " clip-rule="nonzero"/></clipPath><clipPath id="c24153fde9"><rect x="0" width="799" y="0" height="773"/></clipPath></defs><g mask="url(#67dc7a6704)"><g transform="matrix(1, 0, 0, 1, 347, 37)"><g clip-path="url(#c24153fde9)"><g clip-path="url(#d058c415d6)"><path fill="#ff8331" d="M 376.367188 738.699219 C 435.550781 717.523438 499.605469 715.308594 559.855469 732.054688 C 566.054688 733.738281 572.4375 731.964844 576.867188 727.269531 C 581.296875 722.484375 582.714844 716.105469 580.585938 709.992188 C 560.210938 650.363281 491.898438 604.292969 406.753906 594.015625 L 388.238281 95.554688 C 388.148438 92.984375 386.378906 90.859375 383.984375 90.238281 C 381.503906 89.621094 379.730469 87.402344 379.730469 84.746094 L 379.730469 52.140625 C 390.007812 48.421875 397.363281 38.585938 397.363281 27.066406 C 397.363281 12.273438 385.402344 0.3125 370.605469 0.3125 C 355.808594 0.3125 343.847656 12.273438 343.847656 27.066406 C 343.847656 38.585938 351.203125 48.421875 361.480469 52.140625 L 361.480469 84.390625 C 361.480469 86.960938 359.621094 89.265625 357.226562 89.886719 C 354.746094 90.503906 353.0625 92.632812 352.976562 95.199219 L 334.457031 594.015625 C 249.3125 604.292969 181.003906 650.363281 160.625 709.992188 C 158.5 716.105469 159.828125 722.484375 164.347656 727.269531 C 168.777344 731.964844 175.066406 733.738281 181.359375 732.054688 C 241.605469 715.308594 305.664062 717.523438 364.847656 738.699219 C 368.65625 740.117188 372.554688 740.117188 376.367188 738.699219 Z M 109.769531 180.34375 C 105.515625 181.40625 101.441406 182.382812 97.453125 183.089844 C 64.671875 188.761719 46.777344 178.484375 29.320312 167.765625 C 22.765625 164.484375 18.246094 157.753906 18.246094 149.867188 C 18.246094 138.878906 27.195312 129.933594 38.179688 129.933594 C 42.699219 129.933594 46.777344 131.4375 50.140625 133.832031 C 61.128906 140.652344 72.378906 146.941406 90.722656 143.753906 C 104.277344 141.449219 122.617188 134.539062 142.285156 127.097656 C 157.703125 121.335938 173.828125 115.222656 189.6875 110.441406 C 209.796875 104.503906 229.46875 100.515625 248.429688 98.921875 C 267.035156 97.328125 285.019531 98.125 302.117188 101.402344 C 311.6875 103.261719 320.8125 105.832031 329.585938 109.023438 L 327.988281 151.285156 C 317.09375 146.5 306.105469 142.777344 294.675781 140.5625 C 281.296875 137.996094 266.855469 137.375 251.707031 138.703125 C 235.492188 140.03125 218.480469 143.488281 201.117188 148.625 C 186.054688 153.144531 170.816406 158.902344 156.285156 164.398438 C 150.527344 166.523438 115.261719 178.308594 109.769531 180.34375 Z M 631.441406 180.34375 C 635.695312 181.40625 639.769531 182.382812 643.757812 183.089844 C 676.539062 188.761719 694.4375 178.484375 711.890625 167.765625 C 718.449219 164.484375 722.964844 157.753906 722.964844 149.867188 C 722.964844 138.878906 714.015625 129.933594 702.941406 129.933594 C 698.511719 129.933594 694.4375 131.4375 691.070312 133.832031 C 680.085938 140.652344 668.742188 146.941406 650.402344 143.753906 C 636.9375 141.449219 618.597656 134.539062 598.925781 127.097656 C 583.511719 121.335938 567.296875 115.222656 551.4375 110.441406 C 531.414062 104.503906 511.746094 100.515625 492.695312 98.921875 C 474.179688 97.328125 456.191406 98.125 439.003906 101.402344 C 429.523438 103.261719 420.398438 105.832031 411.628906 109.023438 L 413.222656 151.285156 C 424.121094 146.5 435.105469 142.777344 446.535156 140.5625 C 459.914062 137.996094 474.355469 137.375 489.417969 138.703125 C 505.71875 140.03125 522.730469 143.488281 540.097656 148.625 C 555.160156 153.144531 570.398438 158.902344 584.929688 164.398438 C 590.597656 166.523438 625.949219 178.308594 631.441406 180.34375 Z M 631.441406 180.34375 " fill-opacity="1" fill-rule="evenodd"/></g><g clip-path="url(#5c77faa83a)"><path fill="#c2365b" d="M 30.738281 49.394531 C 33.929688 55.417969 55.8125 48.507812 63.078125 71.8125 C 65.027344 78.277344 64.761719 83.773438 67.152344 85.988281 C 69.988281 84.214844 69.015625 79.429688 71.050781 72.34375 C 73.886719 62.597656 79.910156 57.101562 89.390625 54.089844 C 96.125 51.875 101.441406 51.964844 103.214844 49.394531 C 97.808594 44.789062 78.140625 49.660156 70.964844 26.625 C 69.632812 22.550781 69.898438 14.398438 67.152344 12.449219 C 62.546875 17.589844 67.417969 38.054688 45.625 45.230469 C 41.546875 46.558594 33.398438 47.269531 30.738281 49.394531 Z M 556.132812 572.398438 C 559.144531 578.066406 579.433594 571.601562 586.257812 593.308594 C 588.117188 599.332031 587.851562 604.46875 590.066406 606.507812 C 592.726562 604.914062 591.839844 600.394531 593.699219 593.75 C 596.269531 584.710938 601.9375 579.664062 610.710938 576.828125 C 617 574.789062 621.960938 574.789062 623.558594 572.398438 C 618.597656 568.144531 600.257812 572.664062 593.609375 551.3125 C 592.371094 547.414062 592.636719 539.882812 590.066406 538.109375 C 585.726562 542.804688 590.246094 561.941406 569.953125 568.585938 C 566.234375 569.828125 558.703125 570.535156 556.132812 572.398438 Z M 622.9375 644.515625 C 627.011719 652.046875 654.214844 643.453125 663.25 672.425781 C 665.820312 680.578125 665.464844 687.398438 668.476562 690.144531 C 671.933594 688.019531 670.691406 681.996094 673.261719 673.136719 C 676.71875 660.996094 684.25 654.175781 696.121094 650.363281 C 704.539062 647.617188 711.183594 647.707031 713.308594 644.515625 C 706.574219 638.757812 682.121094 644.871094 673.085938 616.164062 C 671.488281 611.027344 671.84375 600.835938 668.476562 598.445312 C 662.628906 604.824219 668.65625 630.429688 641.453125 639.378906 C 636.492188 641.0625 626.304688 641.949219 622.9375 644.515625 Z M 509.351562 399.804688 C 524.503906 439.054688 568.09375 467.40625 619.660156 467.40625 C 671.136719 467.40625 714.726562 439.054688 729.875 399.804688 Z M 231.769531 399.804688 C 216.710938 439.054688 173.03125 467.40625 121.554688 467.40625 C 70.078125 467.40625 26.488281 439.054688 11.335938 399.804688 Z M 95.152344 206.835938 L 5.664062 368.265625 C 5.664062 368.617188 5.664062 369.0625 5.664062 369.417969 C 5.664062 375.972656 6.460938 382.351562 7.878906 388.464844 L 235.316406 388.464844 C 236.734375 382.351562 237.53125 375.972656 237.53125 369.417969 C 237.53125 369.0625 237.441406 368.617188 237.441406 368.265625 L 149.640625 191.242188 C 139.007812 194.785156 128.199219 198.242188 117.65625 202.050781 L 116.679688 202.40625 L 115.707031 202.671875 C 111.011719 203.914062 106.226562 204.976562 101.441406 205.863281 C 99.316406 206.214844 97.1875 206.570312 95.152344 206.835938 Z M 38.359375 368.265625 L 126.515625 202.40625 L 205.988281 368.265625 Z M 646.0625 206.835938 L 735.546875 368.265625 C 735.546875 368.617188 735.546875 369.0625 735.546875 369.417969 C 735.546875 375.972656 734.75 382.351562 733.332031 388.464844 L 505.898438 388.464844 C 504.480469 382.351562 503.683594 375.972656 503.683594 369.417969 C 503.683594 369.0625 503.683594 368.617188 503.683594 368.265625 L 591.574219 191.242188 C 602.207031 194.785156 613.015625 198.242188 623.46875 202.050781 L 624.53125 202.40625 L 625.507812 202.671875 C 630.203125 203.914062 634.988281 204.976562 639.769531 205.863281 C 641.898438 206.214844 644.023438 206.570312 646.0625 206.835938 Z M 702.855469 368.265625 L 614.609375 202.40625 L 535.136719 368.265625 Z M 702.855469 368.265625 " fill-opacity="1" fill-rule="evenodd"/></g></g></g></g></svg>