<svg xmlns="http://www.w3.org/2000/svg" xmlns:xlink="http://www.w3.org/1999/xlink" width="1920" zoomAndPan="magnify" viewBox="0 0 1440 809.999993" height="1080" preserveAspectRatio="xMidYMid meet" version="1.0"><path fill="#b30634" d="M 0.117188 639.605469 C 38.984375 621.324219 115.558594 607.648438 223.226562 655.292969 C 431.652344 731.4375 575.882812 618.300781 575.882812 618.300781 C 323.265625 826.726562 140.75 592.96875 0.117188 705.242188 Z M 0.117188 639.605469 " fill-opacity="1" fill-rule="evenodd"/><path fill="#ff6600" d="M 0.117188 770.160156 C 32.074219 781.097656 94.976562 779.945312 183.355469 711.429688 C 194.292969 704.089844 205.089844 697.46875 215.597656 691.566406 C 199.1875 687.96875 183.210938 684.515625 167.664062 681.347656 C 104.476562 713.015625 49.203125 740.792969 0.117188 704.664062 Z M 265.257812 668.394531 C 391.207031 621.613281 472.964844 680.484375 472.964844 680.484375 C 378.394531 607.648438 295.773438 623.914062 222.9375 655.148438 C 223.082031 655.148438 223.082031 655.292969 223.226562 655.292969 C 237.621094 660.476562 251.582031 664.9375 265.257812 668.394531 Z M 265.257812 668.394531 " fill-opacity="1" fill-rule="evenodd"/><path fill="#b30634" d="M 212.574219 638.742188 C 212.574219 638.742188 156.292969 597.285156 100.15625 594.984375 C 44.164062 592.535156 0.117188 627.65625 0.117188 627.65625 C 0.117188 627.65625 90.082031 576.414062 212.574219 638.742188 Z M 212.574219 638.742188 " fill-opacity="1" fill-rule="evenodd"/></svg>