<svg xmlns="http://www.w3.org/2000/svg" xmlns:xlink="http://www.w3.org/1999/xlink" width="1920" zoomAndPan="magnify" viewBox="0 0 1440 809.999993" height="1080" preserveAspectRatio="xMidYMid meet" version="1.0"><defs><clipPath id="81abe12df6"><path d="M 860 15.835938 L 1359 15.835938 L 1359 261.835938 L 860 261.835938 Z M 860 15.835938 " clip-rule="nonzero"/></clipPath></defs><g clip-path="url(#81abe12df6)"><path fill="#b30634" d="M 935.242188 261.363281 C 961.246094 260.917969 986.972656 258.015625 1012.421875 252.660156 C 1082.027344 238.039062 1143.726562 205.355469 1198.242188 160.175781 C 1226.71875 136.578125 1253.375 110.5625 1284.257812 90.226562 C 1306.210938 75.765625 1332.238281 63.269531 1358.996094 59.058594 L 1358.996094 15.675781 C 1357.457031 16.015625 1356.160156 16.289062 1355.222656 16.503906 C 1337.617188 20.195312 1320.617188 26.65625 1304.703125 35.023438 C 1271.617188 52.410156 1243.21875 77.421875 1216.324219 103.367188 C 1168.753906 149.261719 1121.84375 195.230469 1060.632812 222.519531 C 997.996094 250.441406 929.167969 261.214844 860.941406 255.402344 C 884.742188 260.824219 910.765625 261.773438 935.242188 261.363281 Z M 935.242188 261.363281 " fill-opacity="1" fill-rule="nonzero"/></g><path fill="#ff6600" d="M 1359 108.164062 L 1359 72.472656 C 1301.992188 90.207031 1250.445312 126.625 1216.414062 175.472656 C 1208.648438 186.613281 1203.660156 199.660156 1196.023438 210.660156 C 1233.414062 156.765625 1294.136719 119.011719 1359 108.164062 Z M 1359 108.164062 " fill-opacity="1" fill-rule="nonzero"/><path fill="#ff6600" d="M 1181.988281 115.238281 C 1176.507812 121.203125 1167.253906 125.769531 1160.53125 130.277344 C 1152.859375 135.421875 1145.074219 140.394531 1137.179688 145.199219 C 1121.734375 154.59375 1105.882812 163.25 1089.703125 171.304688 C 1056.910156 187.617188 1022.921875 200.882812 987.746094 211.097656 C 921.496094 230.375 851.921875 238.679688 783 234.734375 C 791 235.191406 799.617188 238.792969 807.570312 240.328125 C 815.941406 241.941406 824.449219 243.035156 832.917969 243.980469 C 849.90625 245.867188 866.945312 246.6875 884.035156 246.441406 C 918.355469 245.957031 952.113281 241.355469 985.308594 232.625 C 1054.476562 214.4375 1119 178.375 1169.800781 127.910156 C 1173.957031 123.78125 1178.019531 119.554688 1181.988281 115.238281 Z M 1181.988281 115.238281 " fill-opacity="1" fill-rule="nonzero"/></svg>